<svg width="279" height="32" viewBox="0 0 279 32" fill="none" xmlns="http://www.w3.org/2000/svg">
<path d="M15.5977 11.7625H3V10.3562H15.5977V11.7625ZM13.0781 16.907C13.0781 15.032 12.1914 14.0945 10.418 14.0945C9.10547 14.0945 8.00781 14.782 7.125 16.157C6.34375 17.3757 5.95312 18.6726 5.95312 20.0476V23.4578L4.03125 22.45V13.6375H6.04688V15.032L7.08984 14.2468C8.01172 13.5515 8.98438 13.2039 10.0078 13.2039C11.3984 13.2039 12.5508 13.7429 13.4648 14.821C14.3242 15.8367 14.7539 17.0515 14.7539 18.4656C14.7539 20.239 14.0039 21.9421 12.5039 23.575L10.2422 22.157C10.9453 21.4617 11.543 20.821 12.0352 20.2351C12.7305 19.407 13.0781 18.2976 13.0781 16.907Z" fill="white"/>
<path d="M27.3511 11.7625H19.5464V13.6375C19.5777 13.6375 19.6089 13.6531 19.6402 13.6843C19.6714 13.7156 19.6987 13.7312 19.7222 13.7312C19.6597 13.7312 19.6245 13.7273 19.6167 13.7195C19.6167 13.6804 20.1987 13.5554 21.3628 13.3445C21.7925 13.2664 22.2183 13.2273 22.6402 13.2273C24.398 13.2273 25.5269 13.7195 26.0269 14.7039C26.3628 15.3601 26.5308 16.6843 26.5308 18.6765V23.1882C26.3667 23.1257 25.7456 22.8718 24.6675 22.4265C24.6675 22.1765 24.6167 22.0164 24.5152 21.946C24.1011 22.1882 23.7612 22.3718 23.4956 22.4968C22.6519 22.8953 21.6714 23.0945 20.5542 23.0945C19.0152 23.0945 17.8277 22.6101 16.9917 21.6414C16.5855 21.1726 16.3823 20.6492 16.3823 20.071C16.3823 19.4226 16.7027 18.7781 17.3433 18.1375C18.5855 16.8953 20.1284 16.2742 21.9722 16.2742C23.0894 16.2742 23.9878 16.532 24.6675 17.0476V15.9695C24.3237 15.532 23.9878 15.239 23.6597 15.0906C23.3394 14.9421 22.898 14.8757 22.3355 14.8914C21.0777 14.9148 19.9253 15.1453 18.8784 15.5828C18.4097 15.7781 17.9527 15.9539 17.5073 16.1101V15.2429C17.6089 15.157 17.7573 15.0281 17.9527 14.8562C17.9839 14.8171 18.0034 14.7937 18.0112 14.7859V11.7625H15.6089V10.3562H27.3511V11.7625ZM24.6675 19.1804C24.6675 18.8367 24.2573 18.5281 23.437 18.2546C22.7573 18.0281 22.1909 17.9148 21.7378 17.9148C20.0894 17.9148 18.7691 18.5085 17.7769 19.696C17.3784 20.1726 17.1792 20.5632 17.1792 20.8679C17.3433 21.4382 17.9878 21.7234 19.1128 21.7234C20.5659 21.7234 21.8941 21.3601 23.0972 20.6335C24.1441 20.0007 24.6675 19.5164 24.6675 19.1804Z" fill="white"/>
<path d="M42.3389 10.3562L42.3155 11.7625H41.1202V14.0007C40.9795 14.282 40.6514 14.8757 40.1358 15.782L35.9756 23.0945C35.2803 23.0945 34.3702 22.5437 33.2452 21.4421C32.0108 20.239 31.3936 18.9031 31.3936 17.4343C31.3936 16.6843 31.6358 15.9851 32.1202 15.3367C32.3389 15.0398 32.4483 14.8171 32.4483 14.6687C32.4483 14.3953 32.2178 14.2585 31.7569 14.2585C31.4131 14.2585 31.0811 14.3992 30.7608 14.6804C30.6436 14.782 30.3897 15.0593 29.9991 15.5125L28.4873 14.1414C29.003 13.7039 29.5069 13.4343 29.9991 13.3328C30.2412 13.2781 30.5537 13.2507 30.9366 13.2507C33.0537 13.2273 34.1123 14.3562 34.1123 16.6375C34.1123 16.9421 34.0772 17.3992 34.0069 18.0085C33.9444 18.6179 33.9131 19.075 33.9131 19.3796C33.9131 20.614 34.1319 21.2859 34.5694 21.3953C34.8116 21.3953 35.0967 21.0984 35.4248 20.5046L38.9991 14.0476V11.7625H27.6084V10.3562H42.3389Z" fill="white"/>
<path d="M55.3931 24.9695C55.3931 26.4226 54.69 27.1492 53.2837 27.1492C52.6587 27.1492 51.7525 26.8523 50.565 26.2585C49.2525 25.6023 48.1509 25.2742 47.2603 25.2742C45.3462 25.2742 43.5416 26.0281 41.8462 27.5359C41.0337 28.2625 40.397 29.1179 39.9361 30.1023C39.9048 29.9773 39.8892 29.7781 39.8892 29.5046C39.8892 28.5671 40.1705 27.6335 40.733 26.7039C41.2486 25.8445 41.9166 25.1257 42.7369 24.5476C43.6587 23.8992 44.7095 23.575 45.8892 23.575C46.7017 23.575 47.4087 23.7117 48.0103 23.9851C48.3306 24.1335 48.9478 24.5164 49.8619 25.1335C50.6431 25.6648 51.2408 25.9304 51.6548 25.9304C52.6861 25.9304 53.5064 25.5046 54.1158 24.6531C54.3814 24.2859 54.5142 23.9265 54.5142 23.575C54.5142 22.9578 54.3267 22.4421 53.9517 22.0281C53.5767 21.6062 53.0845 21.3953 52.4752 21.3953C51.9127 21.3953 50.9869 21.6804 49.6978 22.2507C48.4087 22.8132 47.483 23.0945 46.9205 23.0945C46.5064 23.0945 46.0064 22.8875 45.4205 22.4734C44.2017 21.6062 43.5923 20.7976 43.5923 20.0476C43.5923 19.6335 43.8228 19.2546 44.2837 18.9109C44.6978 18.5906 45.1236 18.4109 45.5611 18.3718L45.5845 18.2429L45.0103 17.4343C44.69 16.9812 44.5298 16.4929 44.5298 15.9695C44.5298 14.1726 45.9986 13.2742 48.9361 13.2742C49.022 13.2585 49.0806 13.1882 49.1119 13.0632V11.7625H43.0416V10.3562H55.0884V11.7625H50.9283V13.7312C50.9283 14.0984 51.0337 14.325 51.2447 14.4109C51.3775 14.4109 51.5455 14.2898 51.7486 14.0476L52.1939 13.5085C52.3111 13.3914 52.522 13.3132 52.8267 13.2742C53.3189 13.2742 53.7877 13.5554 54.233 14.1179C54.4361 14.3757 54.5689 14.6335 54.6314 14.8914L53.4009 16.2976C53.3853 15.9382 53.3111 15.6101 53.1783 15.3132C52.9986 14.9148 52.7642 14.7156 52.4752 14.7156C52.3658 14.7156 52.2369 14.7664 52.0884 14.8679C51.94 14.9695 51.8658 15.071 51.8658 15.1726C51.8658 15.2898 51.9166 15.4304 52.0181 15.5945C52.1353 15.7898 52.2017 15.9109 52.2173 15.9578C52.272 16.1375 52.2994 16.364 52.2994 16.6375C52.2994 17.6921 51.8697 18.407 51.0103 18.782C50.44 19.032 49.5416 19.157 48.315 19.157C46.7525 19.157 45.6861 19.5046 45.1158 20.2C44.8892 20.4734 44.7798 20.696 44.7877 20.8679C44.7955 21.1023 44.9127 21.3093 45.1392 21.489C45.3658 21.6609 45.6002 21.7468 45.8423 21.7468C46.2877 21.7468 47.1431 21.4382 48.4087 20.821C49.9009 20.0945 51.1041 19.7234 52.0181 19.7078C52.8541 19.6921 53.5572 20.0632 54.1275 20.821C54.5884 21.4226 54.9205 22.1882 55.1236 23.1179C55.3033 23.9382 55.3931 24.5554 55.3931 24.9695ZM50.8345 15.5593C50.8345 14.614 50.3306 14.1414 49.3228 14.1414C48.5103 14.1414 47.7408 14.4265 47.0142 14.9968C46.233 15.6062 45.8423 16.3054 45.8423 17.0945C45.8423 17.5242 46.0064 17.8914 46.3345 18.196C46.6705 18.5007 47.0533 18.6531 47.483 18.6531C47.9283 18.6609 48.4322 18.5007 48.9947 18.1726C49.4947 17.8835 49.9087 17.5476 50.2369 17.1648C50.6353 16.696 50.8345 16.1609 50.8345 15.5593Z" fill="white"/>
<path d="M68.5059 11.7625H58.6973V19.2742C58.6973 19.7742 58.8028 20.2898 59.0137 20.821C59.4434 21.907 60.1544 22.45 61.1466 22.45C62.4825 22.45 63.4981 21.8914 64.1934 20.7742C64.7325 19.9148 65.002 19.1062 65.002 18.3484V13.6843H67.3809V23.6687C67.1934 23.5593 66.8419 23.3914 66.3262 23.1648L64.9786 22.5671V21.6296C64.0567 22.3015 63.2677 22.7273 62.6114 22.907C62.213 23.0164 61.7403 23.071 61.1934 23.071C59.4591 23.071 58.1036 22.3093 57.127 20.7859C56.6817 20.0906 56.4591 19.3328 56.4591 18.5125V11.7625H55.0411V10.3562H68.5059V11.7625Z" fill="white"/>
<path d="M80.6227 11.7625H68.775V10.3562H80.6227V11.7625ZM79.65 15.9695C79.65 16.4304 79.3727 16.95 78.818 17.5281C78.3492 18.0203 77.857 18.3875 77.3414 18.6296L75.5836 16.6375C76.1148 16.5906 76.6188 16.3953 77.0953 16.0515C77.6422 15.6609 77.9156 15.2156 77.9156 14.7156C77.9156 14.45 77.7438 14.2234 77.4 14.0359C77.1031 13.864 76.8102 13.7781 76.5211 13.7781C75.9195 13.7781 75.275 14.0671 74.5875 14.6453C73.1891 15.8171 72.4898 17.114 72.4898 18.5359V23.5046L70.2398 22.3328V13.6609H72.5133V14.5515C72.8492 14.2156 73.5445 13.864 74.5992 13.4968C75.1148 13.3171 75.6461 13.2273 76.193 13.2273C77.3258 13.2273 78.2867 13.6609 79.0758 14.5281C79.4586 14.95 79.65 15.4304 79.65 15.9695Z" fill="white"/>
<path d="M94.0284 11.7625H84.2198V19.2742C84.2198 19.7742 84.3253 20.2898 84.5362 20.821C84.9659 21.907 85.6769 22.45 86.6691 22.45C88.005 22.45 89.0206 21.8914 89.7159 20.7742C90.255 19.9148 90.5245 19.1062 90.5245 18.3484V13.6843H92.9034V23.6687C92.7159 23.5593 92.3644 23.3914 91.8487 23.1648L90.5011 22.5671V21.6296C89.5792 22.3015 88.7902 22.7273 88.1339 22.907C87.7355 23.0164 87.2628 23.071 86.7159 23.071C84.9816 23.071 83.6261 22.3093 82.6495 20.7859C82.2042 20.0906 81.9816 19.3328 81.9816 18.5125V11.7625H80.5636V10.3562H94.0284V11.7625Z" fill="white"/>
<path d="M105.337 11.7625H97.6491V14.7859C98.11 14.5203 98.8639 14.1726 99.9108 13.7429C100.34 13.6257 100.86 13.5671 101.469 13.5671C102.305 13.5671 103.051 13.7976 103.708 14.2585C104.442 14.7664 104.809 15.4226 104.809 16.2273C104.809 17.3132 104.188 18.1023 102.946 18.5945C102.43 18.7976 101.985 18.8992 101.61 18.8992L104.329 22.2039L102.84 23.282L98.6569 18.3132L99.4303 16.7078C99.8444 16.825 100.278 16.8835 100.731 16.8835C101.395 16.8835 101.938 16.7273 102.36 16.4148C102.837 16.071 103.075 15.5789 103.075 14.9382C103.075 14.3132 102.63 14.0007 101.739 14.0007C101.114 14.0007 100.45 14.3015 99.7467 14.9031C99.2467 15.3328 98.7897 15.8523 98.3756 16.4617C97.8756 17.196 97.6256 17.825 97.6256 18.3484V23.2585L95.61 22.3562V11.7625H94.1217V10.3562H95.5397C95.5397 8.11401 95.1334 6.25073 94.3209 4.76636C94.1647 4.47729 93.8639 4.0437 93.4186 3.46558C92.9967 2.91089 92.7038 2.46948 92.5397 2.14136H94.9186C95.3795 2.57104 95.8561 3.27808 96.3483 4.26245C97.1842 5.93433 97.6022 7.96558 97.6022 10.3562H105.337V11.7625Z" fill="white"/>
<path d="M118.801 11.7625H108.992V19.2742C108.992 19.7742 109.098 20.2898 109.309 20.821C109.738 21.907 110.449 22.45 111.442 22.45C112.777 22.45 113.793 21.8914 114.488 20.7742C115.027 19.9148 115.297 19.1062 115.297 18.3484V13.6843H117.676V23.6687C117.488 23.5593 117.137 23.3914 116.621 23.1648L115.274 22.5671V21.6296C114.352 22.3015 113.563 22.7273 112.906 22.907C112.508 23.0164 112.035 23.071 111.488 23.071C109.754 23.071 108.399 22.3093 107.422 20.7859C106.977 20.0906 106.754 19.3328 106.754 18.5125V11.7625H105.336V10.3562H118.801V11.7625Z" fill="white"/>
<path d="M124.367 11.7625H123.125V10.3562H124.367V11.7625ZM120.359 11.7625H119.023V10.3562H120.359V11.7625ZM122.738 8.93823V23.364C122.66 23.3406 122.558 23.2976 122.433 23.2351L121.824 22.9187C121.129 22.5593 120.761 22.3796 120.722 22.3796V8.96167C120.722 8.14136 120.562 7.27026 120.242 6.34839C119.797 5.05933 119.105 3.88745 118.168 2.83276L117.429 2.00073H119.925C121.222 3.29761 122.074 4.88745 122.48 6.77026C122.652 7.56714 122.738 8.28979 122.738 8.93823Z" fill="white"/>
<path d="M142.944 15.4887V21.2847C142.944 23.2261 141.964 24.1967 140.004 24.1967H139.5C137.54 24.1967 136.56 23.2261 136.56 21.2847V6.89273C136.56 5.15673 137.54 4.28873 139.5 4.28873H140.004C141.964 4.28873 142.944 5.2594 142.944 7.20073V12.9967L141.46 12.8287V7.20073C141.46 6.24873 140.975 5.77273 140.004 5.77273H139.5C138.529 5.77273 138.044 6.14607 138.044 6.89273V21.2847C138.044 22.2367 138.529 22.7127 139.5 22.7127H140.004C140.975 22.7127 141.46 22.2367 141.46 21.2847V15.4887H142.944ZM144.836 24.0007V5.88473H144.332L144.556 4.40073H146.32V22.5167H147.3L147.076 24.0007H144.836ZM151.528 24.0007C150.669 24.0007 149.978 23.7581 149.456 23.2727C148.952 22.7687 148.7 22.1434 148.7 21.3967V12.6047C148.7 11.7461 148.942 11.1021 149.428 10.6727C149.932 10.2247 150.641 10.0007 151.556 10.0007H151.612C151.854 10.0007 152.088 10.0287 152.312 10.0847C152.554 10.1407 152.778 10.2247 152.984 10.3367V10.0007H154.468V22.5167H154.804L155.028 24.0007H152.984V23.3007L152.34 24.0007H151.528ZM151.024 11.4847C150.688 11.4847 150.464 11.5407 150.352 11.6527C150.24 11.7647 150.184 11.9887 150.184 12.3247V21.6767C150.184 22.0127 150.24 22.2367 150.352 22.3487C150.464 22.4607 150.688 22.5167 151.024 22.5167H152.984V11.4847H151.024ZM156.287 18.9607L157.771 19.1567V21.2007C157.771 22.1527 158.256 22.6287 159.227 22.6287H159.731C160.702 22.6287 161.187 22.2554 161.187 21.5087L161.159 18.7927L156.959 16.8047C156.511 16.5994 156.287 16.2261 156.287 15.6847V12.4927C156.287 10.7567 157.267 9.88873 159.227 9.88873H159.983C161.775 9.98207 162.671 10.9527 162.671 12.8007V15.0967L161.187 14.9567V12.8007C161.187 11.8487 160.702 11.3727 159.731 11.3727H159.227C158.76 11.3727 158.396 11.4661 158.135 11.6527C157.892 11.8207 157.771 12.0447 157.771 12.3247L157.799 15.6287L161.999 17.6167C162.447 17.8034 162.671 18.1767 162.671 18.7367V21.5087C162.671 23.2447 161.691 24.1127 159.731 24.1127H158.975C157.183 24.0194 156.287 23.0487 156.287 21.2007V18.9607ZM164.339 18.9607L165.823 19.1567V21.2007C165.823 22.1527 166.308 22.6287 167.279 22.6287H167.783C168.754 22.6287 169.239 22.2554 169.239 21.5087L169.211 18.7927L165.011 16.8047C164.563 16.5994 164.339 16.2261 164.339 15.6847V12.4927C164.339 10.7567 165.319 9.88873 167.279 9.88873H168.035C169.827 9.98207 170.723 10.9527 170.723 12.8007V15.0967L169.239 14.9567V12.8007C169.239 11.8487 168.754 11.3727 167.783 11.3727H167.279C166.812 11.3727 166.448 11.4661 166.187 11.6527C165.944 11.8207 165.823 12.0447 165.823 12.3247L165.851 15.6287L170.051 17.6167C170.499 17.8034 170.723 18.1767 170.723 18.7367V21.5087C170.723 23.2447 169.743 24.1127 167.783 24.1127H167.027C165.235 24.0194 164.339 23.0487 164.339 21.2007V18.9607ZM177.843 5.88473L178.123 4.40073H181.483C183.443 4.40073 184.423 5.3714 184.423 7.31273V15.1807C184.423 16.9167 183.443 17.7847 181.483 17.7847H179.831V24.0007H178.347V5.88473H177.843ZM181.483 5.88473H179.831V16.3007H181.483C182.453 16.3007 182.939 15.9274 182.939 15.1807V7.31273C182.939 6.36073 182.453 5.88473 181.483 5.88473ZM187.794 10.0007V11.0647L188.438 10.0007H189.866V11.6527H187.794V24.0007H186.31V11.4847H185.806L186.03 10.0007H187.794ZM196.034 12.8007C196.034 12.2221 195.94 11.8394 195.754 11.6527C195.567 11.4661 195.175 11.3727 194.578 11.3727H194.074C193.495 11.3727 193.103 11.4661 192.898 11.6527C192.711 11.8394 192.618 12.2221 192.618 12.8007V21.2007C192.618 21.7794 192.711 22.1621 192.898 22.3487C193.103 22.5354 193.495 22.6287 194.074 22.6287H194.578C195.175 22.6287 195.567 22.5354 195.754 22.3487C195.94 22.1621 196.034 21.7794 196.034 21.2007V12.8007ZM191.134 21.2007V12.8007C191.134 10.8594 192.114 9.88873 194.074 9.88873H194.578C196.538 9.88873 197.518 10.8594 197.518 12.8007V21.2007C197.518 23.1421 196.538 24.1127 194.578 24.1127H194.074C192.114 24.1127 191.134 23.1421 191.134 21.2007ZM199.367 8.96473V7.48073H200.795L201.019 8.96473H199.367ZM198.079 26.6327V25.1487H199.535V11.4847H199.143L199.367 10.0007H201.019V25.1487C201.019 25.5967 200.879 25.9514 200.599 26.2127C200.338 26.4927 199.983 26.6327 199.535 26.6327H198.079ZM202.699 21.2007V12.8007C202.699 10.8594 203.679 9.88873 205.639 9.88873H205.947C207.907 9.88873 208.887 10.8594 208.887 12.8007V18.1767H204.183V21.2007C204.183 21.7794 204.276 22.1621 204.463 22.3487C204.668 22.5354 205.06 22.6287 205.639 22.6287H205.947C206.544 22.6287 206.936 22.5354 207.123 22.3487C207.31 22.1621 207.403 21.7794 207.403 21.2007V19.8567H208.887V21.2007C208.887 23.1421 207.907 24.1127 205.947 24.1127H205.639C203.679 24.1127 202.699 23.1421 202.699 21.2007ZM207.403 12.8007C207.403 12.2221 207.31 11.8394 207.123 11.6527C206.936 11.4661 206.544 11.3727 205.947 11.3727H205.639C205.06 11.3727 204.668 11.4661 204.463 11.6527C204.276 11.8394 204.183 12.2221 204.183 12.8007V16.6927H207.403V12.8007ZM210.56 21.2007V12.8007C210.56 10.8594 211.54 9.88873 213.5 9.88873H213.808C215.768 9.88873 216.748 10.8594 216.748 12.8007V16.1327L215.264 15.9647V12.8007C215.264 12.2221 215.171 11.8394 214.984 11.6527C214.797 11.4661 214.405 11.3727 213.808 11.3727H213.5C212.921 11.3727 212.529 11.4661 212.324 11.6527C212.137 11.8394 212.044 12.2221 212.044 12.8007V21.2007C212.044 21.7794 212.137 22.1621 212.324 22.3487C212.529 22.5354 212.921 22.6287 213.5 22.6287H213.808C214.405 22.6287 214.797 22.5354 214.984 22.3487C215.171 22.1621 215.264 21.7794 215.264 21.2007V18.1487H216.748V21.2007C216.748 23.1421 215.768 24.1127 213.808 24.1127H213.5C211.54 24.1127 210.56 23.1421 210.56 21.2007ZM222.005 22.5167V24.0007H220.661C220.213 24.0007 219.849 23.8701 219.569 23.6087C219.307 23.3287 219.177 22.9647 219.177 22.5167V11.4847H218.001L218.225 10.0007H219.177V5.88473H218.673L218.897 4.40073H220.661V10.0007H222.005L221.781 11.4847H220.661V22.5167H222.005Z" fill="#F3F3F3"/>
<path d="M236.313 9.83273H237.797V17.4487H238.301C238.73 17.4487 239.076 17.3181 239.337 17.0567C239.617 16.7954 239.757 16.4501 239.757 16.0207V9.30073C239.757 8.8714 239.617 8.52606 239.337 8.26473C239.076 8.0034 238.73 7.87273 238.301 7.87273H231.805C231.376 7.87273 231.021 8.0034 230.741 8.26473C230.48 8.52606 230.349 8.8714 230.349 9.30073V21.0887C230.349 21.5181 230.48 21.8634 230.741 22.1247C231.002 22.3861 231.357 22.5167 231.805 22.5167H238.301C238.73 22.5167 239.076 22.3861 239.337 22.1247C239.617 21.8634 239.757 21.5181 239.757 21.0887V19.7447H241.241V21.0887C241.241 21.9474 240.97 22.6474 240.429 23.1887C239.888 23.7301 239.178 24.0007 238.301 24.0007H231.805C230.928 24.0007 230.218 23.7301 229.677 23.1887C229.136 22.6474 228.865 21.9474 228.865 21.0887V9.30073C228.865 8.4234 229.136 7.7234 229.677 7.20073C230.218 6.6594 230.928 6.38873 231.805 6.38873H238.301C239.178 6.38873 239.888 6.6594 240.429 7.20073C240.97 7.7234 241.241 8.4234 241.241 9.30073V16.0207C241.241 16.8794 240.97 17.5794 240.429 18.1207C239.906 18.6621 239.206 18.9327 238.329 18.9327H238.301L237.797 18.3727V20.5567H236.313V19.8567L235.669 20.5567H234.857C233.998 20.5567 233.308 20.3141 232.785 19.8287C232.281 19.3247 232.029 18.6994 232.029 17.9527V12.4367C232.029 11.5781 232.281 10.9341 232.785 10.5047C233.289 10.0567 233.998 9.83273 234.913 9.83273C235.174 9.83273 235.417 9.87006 235.641 9.94473C235.884 10.0007 236.108 10.0754 236.313 10.1687V9.83273ZM234.353 11.3167C234.017 11.3167 233.793 11.3727 233.681 11.4847C233.569 11.5967 233.513 11.8207 233.513 12.1567V18.2327C233.513 18.5687 233.569 18.7927 233.681 18.9047C233.793 19.0167 234.017 19.0727 234.353 19.0727H236.313V11.3167H234.353ZM242.793 5.88473L243.073 4.40073H246.433C248.393 4.40073 249.373 5.3714 249.373 7.31273V15.1807C249.373 16.3007 248.943 17.0661 248.085 17.4767L249.961 24.0007H248.449L246.685 17.7847C246.61 17.7847 246.526 17.7847 246.433 17.7847H244.781V24.0007H243.297V5.88473H242.793ZM246.433 5.88473H244.781V16.3007H246.433C247.403 16.3007 247.889 15.9274 247.889 15.1807V7.31273C247.889 6.36073 247.403 5.88473 246.433 5.88473ZM251.094 21.2007V12.8007C251.094 10.8594 252.074 9.88873 254.034 9.88873H254.342C256.302 9.88873 257.282 10.8594 257.282 12.8007V18.1767H252.578V21.2007C252.578 21.7794 252.672 22.1621 252.858 22.3487C253.064 22.5354 253.456 22.6287 254.034 22.6287H254.342C254.94 22.6287 255.332 22.5354 255.518 22.3487C255.705 22.1621 255.798 21.7794 255.798 21.2007V19.8567H257.282V21.2007C257.282 23.1421 256.302 24.1127 254.342 24.1127H254.034C252.074 24.1127 251.094 23.1421 251.094 21.2007ZM255.798 12.8007C255.798 12.2221 255.705 11.8394 255.518 11.6527C255.332 11.4661 254.94 11.3727 254.342 11.3727H254.034C253.456 11.3727 253.064 11.4661 252.858 11.6527C252.672 11.8394 252.578 12.2221 252.578 12.8007V16.6927H255.798V12.8007ZM261.783 24.0007C260.924 24.0007 260.234 23.7581 259.711 23.2727C259.207 22.7687 258.955 22.1434 258.955 21.3967V12.6047C258.955 11.7461 259.198 11.1021 259.683 10.6727C260.187 10.2247 260.896 10.0007 261.811 10.0007H261.867C262.11 10.0007 262.343 10.0287 262.567 10.0847C262.81 10.1407 263.034 10.2247 263.239 10.3367V10.0007H264.723V22.5167H265.059L265.283 24.0007H263.239V23.3007L262.595 24.0007H261.783ZM261.279 11.4847C260.943 11.4847 260.719 11.5407 260.607 11.6527C260.495 11.7647 260.439 11.9887 260.439 12.3247V21.6767C260.439 22.0127 260.495 22.2367 260.607 22.3487C260.719 22.4607 260.943 22.5167 261.279 22.5167H263.239V11.4847H261.279ZM266.542 21.2007V12.8007C266.542 10.8594 267.522 9.88873 269.482 9.88873H269.79C271.75 9.88873 272.73 10.8594 272.73 12.8007V16.1327L271.246 15.9647V12.8007C271.246 12.2221 271.153 11.8394 270.966 11.6527C270.78 11.4661 270.388 11.3727 269.79 11.3727H269.482C268.904 11.3727 268.512 11.4661 268.306 11.6527C268.12 11.8394 268.026 12.2221 268.026 12.8007V21.2007C268.026 21.7794 268.12 22.1621 268.306 22.3487C268.512 22.5354 268.904 22.6287 269.482 22.6287H269.79C270.388 22.6287 270.78 22.5354 270.966 22.3487C271.153 22.1621 271.246 21.7794 271.246 21.2007V18.1487H272.73V21.2007C272.73 23.1421 271.75 24.1127 269.79 24.1127H269.482C267.522 24.1127 266.542 23.1421 266.542 21.2007ZM277.987 22.5167V24.0007H276.643C276.195 24.0007 275.831 23.8701 275.551 23.6087C275.29 23.3287 275.159 22.9647 275.159 22.5167V11.4847H273.983L274.207 10.0007H275.159V5.88473H274.655L274.879 4.40073H276.643V10.0007H277.987L277.763 11.4847H276.643V22.5167H277.987Z" fill="#F85146"/>
</svg>
