<svg width="26" height="29" viewBox="0 0 26 29" fill="none" xmlns="http://www.w3.org/2000/svg">
<g clip-path="url(#clip0_1_166)">
<path d="M10 5.5V6H10.5H15.5H16V5.5V5C16 4.20435 15.6839 3.44129 15.1213 2.87868C14.5587 2.31607 13.7956 2 13 2C12.2044 2 11.4413 2.31607 10.8787 2.87868C10.3161 3.44129 10 4.20435 10 5V5.5ZM8.5 6H9V5.5V5C9 3.93913 9.42143 2.92172 10.1716 2.17157C10.9217 1.42143 11.9391 1 13 1C14.0609 1 15.0783 1.42143 15.8284 2.17157C16.5786 2.92172 17 3.93913 17 5V5.5V6H17.5H25C25.1326 6 25.2598 6.05268 25.3536 6.14645C25.4473 6.24021 25.5 6.36739 25.5 6.5C25.5 6.63261 25.4473 6.75979 25.3536 6.85355C25.2598 6.94732 25.1326 7 25 7H23.492H23.0458L22.9952 7.44327L21.1032 24.0112C20.9777 25.1094 20.4523 26.1229 19.6274 26.8586C18.8024 27.5942 17.7356 28.0005 16.6302 28H16.63H9.37H9.36976C8.26444 28.0005 7.19759 27.5942 6.37263 26.8586C5.54769 26.1229 5.02235 25.1094 4.89677 24.0113C4.89677 24.0112 4.89677 24.0112 4.89676 24.0112L3.00477 7.44327L2.95415 7H2.508H1C0.867392 7 0.740215 6.94732 0.646446 6.85355C0.552678 6.75979 0.5 6.63261 0.5 6.5C0.5 6.36739 0.552678 6.24021 0.646446 6.14645C0.740215 6.05268 0.867392 6 1 6H8.5ZM9.36789 27H9.368H16.631H16.6311C17.4905 26.9998 18.3199 26.6834 18.961 26.1111C19.6022 25.5388 20.0103 24.7507 20.1078 23.8968C20.1078 23.8968 20.1078 23.8967 20.1078 23.8967L21.9768 7.55682L22.0405 7H21.48H4.521H3.96062L4.02423 7.55676L5.89122 23.8967C5.89122 23.8967 5.89123 23.8967 5.89123 23.8968C5.98865 24.7506 6.39682 25.5388 7.03796 26.1111C7.67913 26.6834 8.50845 26.9998 9.36789 27ZM10 11.5C10.1326 11.5 10.2598 11.5527 10.3536 11.6464C10.4473 11.7402 10.5 11.8674 10.5 12V22C10.5 22.1326 10.4473 22.2598 10.3536 22.3536C10.2598 22.4473 10.1326 22.5 10 22.5C9.86739 22.5 9.74021 22.4473 9.64645 22.3536C9.55268 22.2598 9.5 22.1326 9.5 22V12C9.5 11.8674 9.55268 11.7402 9.64645 11.6464C9.74022 11.5527 9.86739 11.5 10 11.5ZM16.3536 11.6464C16.4473 11.7402 16.5 11.8674 16.5 12V22C16.5 22.1326 16.4473 22.2598 16.3536 22.3536C16.2598 22.4473 16.1326 22.5 16 22.5C15.8674 22.5 15.7402 22.4473 15.6464 22.3536C15.5527 22.2598 15.5 22.1326 15.5 22V12C15.5 11.8674 15.5527 11.7402 15.6464 11.6464C15.7402 11.5527 15.8674 11.5 16 11.5C16.1326 11.5 16.2598 11.5527 16.3536 11.6464Z" fill="#5E5E75" stroke="#5E5E75"/>
</g>
<defs>
<clipPath id="clip0_1_166">
<rect width="26" height="29" fill="white"/>
</clipPath>
</defs>
</svg>
